# xmcd
#
# Track frame offsets: 
#        150
#        3728
#        27344
#        39792
#        57920
#        73516
#        87993
#        103559
#        116996
#        129150
#        142854
#        156240
#        171824
#        185267
#        196653
#        205937
#        220273
#        233553
#
# Disc length: 3282 seconds
#
# Revision: 0
# Processed by: cddbd v1.5.1PL2 Copyright (c) Steve Scherf et al.
# Submitted via: ExactAudioCopy v0.90b4
#
DISCID=ed0cd012
DTITLE=Various Artist - Roll Deep Presents Grimey Vol.1
DYEAR=2006
DGENRE=Grime
TTITLE0=Intro
TTITLE1=So Solid Crew - Envy (They Don't Know Vocal Remix)
TTITLE2=JME - Serious
TTITLE3=Maxwell D - Serious
TTITLE4=Danny Weed - Creeper (Roll Deep Freestyle Exclusive)
TTITLE5=SLK - Hype! Hype!
TTITLE6=Geenus and Wiley Ft. Roll Deep - Wickedest Ting
TTITLE7=Donae'o - My Philosophy (Bounce)
TTITLE8=Dizzee Rascal - I Luv U
TTITLE9=Sticky Ft. Ms Dynamite - Booo! (Original Dirty Mix)
TTITLE10=Kano - Boys Love Girls
TTITLE11=Target - Steamrolla (Roll Deep Freestyle Exclusive)
TTITLE12=More Fire Crew - Oi!
TTITLE13=Roll Deep - Roll Deep Regular
TTITLE14=Tinchy Strider - Underground
TTITLE15=Trim Ft. Wiley and Riko - Bogeyman
TTITLE16=Wiley - What Do U Call It?
TTITLE17=Stush - Dollar Sign
EXTD=
EXTT0=
EXTT1=
EXTT2=
EXTT3=
EXTT4=
EXTT5=
EXTT6=
EXTT7=
EXTT8=
EXTT9=
EXTT10=
EXTT11=
EXTT12=
EXTT13=
EXTT14=
EXTT15=
EXTT16=
EXTT17=
PLAYORDER=
